# xmcd CD database file
#
# Track frame offsets:
#	150
#	17559
#	35880
#	50601
#	65874
#	77763
#	91500
#	110853
#	125670
#
# Disc length: 1920 seconds
#
# Revision: 0
# Processed by: cddbd v1.5.2PL0 Copyright (c) Steve Scherf et al.
# Submitted via: CDex 1.70beta2
#
DISCID=7c077e09
DTITLE=Brian D. Brown - Just Another Morning
DYEAR=2006
DGENRE=Country
TTITLE0=She's Taking It Harder Than I Thought
TTITLE1=Just Another Morning
TTITLE2=One Never Knows
TTITLE3=Boy That Girl
TTITLE4=Once A Month
TTITLE5=Father Time
TTITLE6=One More Kiss
TTITLE7=Let's Let Go
TTITLE8=The Road To Somewhere Else
EXTD=YEAR: 2006
EXTT0=
EXTT1=
EXTT2=
EXTT3=
EXTT4=
EXTT5=
EXTT6=
EXTT7=
EXTT8=
PLAYORDER=
